# xmcd
#
# Track frame offsets: 
#        150
#        17418
#        34625
#        50145
#        66703
#        92593
#        111519
#        134117
#        153065
#        183631
#        198445
#        214078
#        242239
#
# Disc length: 3455 seconds
#
# Revision: 0
# Processed by: cddbd v1.5.2PL0 Copyright (c) Steve Scherf et al.
# Submitted via: ExactAudioCopy v1.3
#
DISCID=c20d7d0d
DTITLE=Blue Rodeo - Small Miracles
DYEAR=2007
DGENRE=Country
TTITLE0=So Far Away
TTITLE1=This Town
TTITLE2=Blue House
TTITLE3=3 Hours Away
TTITLE4=It Makes Me Wonder
TTITLE5=Summer Girls
TTITLE6=Together
TTITLE7=Mystic River
TTITLE8=Black Ribbon
TTITLE9=C'mon
TTITLE10=Small Miracles
TTITLE11=Beautiful
TTITLE12=Where I Was Before
EXTD=
EXTT0=
EXTT1=
EXTT2=
EXTT3=
EXTT4=
EXTT5=
EXTT6=
EXTT7=
EXTT8=
EXTT9=
EXTT10=
EXTT11=
EXTT12=
PLAYORDER=
